<?xml version="1.0" standalone="no"?>
<!DOCTYPE svg PUBLIC "-//W3C//DTD SVG 20010904//EN"
 "http://www.w3.org/TR/2001/REC-SVG-20010904/DTD/svg10.dtd">
<svg version="1.0" xmlns="http://www.w3.org/2000/svg"
 width="512.000000pt" height="118.000000pt" viewBox="0 0 512.000000 118.000000"
 preserveAspectRatio="xMidYMid meet">

<g transform="translate(0.000000,118.000000) scale(0.100000,-0.100000)"
fill="#fff" stroke="none">
<path d="M845 1063 c19 -44 17 -62 -10 -88 -20 -21 -33 -26 -56 -23 -28 4 -30
3 -24 -21 8 -37 59 -81 94 -81 37 0 77 40 85 85 12 61 -38 145 -84 145 -8 0
-9 -7 -5 -17z"/>
<path d="M468 1003 c-10 -21 -22 -29 -46 -31 -38 -4 -43 -31 -12 -62 26 -26
46 -25 75 5 28 27 34 85 11 104 -12 10 -17 7 -28 -16z"/>
<path d="M409 847 c-232 -79 -277 -300 -101 -497 l49 -55 6 80 c21 262 21 281
3 262 -10 -9 -32 -17 -50 -17 -32 0 -96 18 -96 26 0 19 37 85 63 112 55 58
179 109 163 67 -3 -9 0 -15 8 -15 24 0 45 -35 85 -141 22 -57 47 -121 56 -142
10 -25 15 -60 13 -100 l-3 -62 -32 55 c-18 30 -48 96 -65 145 l-33 90 -9 -204
c-6 -131 -5 -210 1 -220 21 -34 184 -89 317 -106 l48 -7 -7 119 c-4 65 -12
181 -19 258 l-11 140 -38 -95 c-42 -106 -84 -173 -110 -178 -15 -3 -17 6 -17
59 0 63 14 106 92 281 41 93 108 126 172 85 54 -36 63 -74 132 -513 l17 -111
35 20 c161 95 175 282 35 454 -72 87 -223 177 -359 213 -110 28 -256 27 -345
-3z"/>
<path d="M4909 823 c-13 -17 -13 -17 6 -3 11 8 22 16 24 17 2 2 0 3 -6 3 -6 0
-17 -8 -24 -17z"/>
<path d="M4961 837 c2 -1 13 -9 24 -17 19 -14 19 -14 6 3 -7 9 -18 17 -24 17
-6 0 -8 -1 -6 -3z"/>
<path d="M1320 740 l0 -60 75 0 76 0 -3 58 -3 57 -72 3 -73 3 0 -61z"/>
<path d="M2302 691 l3 -109 -32 28 c-62 55 -161 49 -220 -13 -47 -49 -66 -95
-71 -172 -7 -113 25 -194 98 -243 30 -20 44 -23 97 -20 53 3 68 9 93 33 l30
29 0 -27 c0 -27 0 -27 75 -27 l75 0 0 315 0 315 -76 0 -75 0 3 -109z m-35
-176 c29 -21 46 -84 37 -142 -19 -126 -151 -124 -169 2 -18 113 57 192 132
140z"/>
<path d="M2500 740 l0 -60 75 0 75 0 0 60 0 60 -75 0 -75 0 0 -60z"/>
<path d="M4892 780 c0 -14 2 -19 5 -12 2 6 2 18 0 25 -3 6 -5 1 -5 -13z"/>
<path d="M4998 777 c-3 -19 -2 -25 4 -19 6 6 8 18 6 28 -3 14 -5 12 -10 -9z"/>
<path d="M4930 773 c0 -10 4 -14 8 -8 4 6 11 13 16 18 5 4 2 7 -7 7 -10 0 -17
-8 -17 -17z"/>
<path d="M4667 763 c-4 -3 -7 -35 -7 -70 0 -57 -9 -78 -24 -54 -7 10 -60 0
-93 -17 -12 -7 -30 -24 -42 -39 l-20 -28 -1 38 0 37 -70 0 -70 0 0 -230 0
-230 74 0 74 0 4 140 c4 163 11 178 92 187 36 5 46 9 46 24 0 11 7 19 15 19
12 0 15 -18 15 -97 0 -144 14 -221 43 -251 27 -27 92 -39 152 -28 36 7 36 7
33 54 -3 42 -6 47 -28 50 -43 6 -50 27 -50 154 l0 118 40 0 40 0 0 44 c0 44 0
45 -37 48 l-38 3 -3 68 -3 67 -68 0 c-37 0 -71 -3 -74 -7z"/>
<path d="M4950 730 c-21 -7 -21 -8 -5 -9 11 0 27 4 35 9 18 11 5 11 -30 0z"/>
<path d="M1747 636 c-22 -8 -50 -24 -63 -37 l-24 -22 0 26 c0 27 -1 27 -70 27
l-70 0 0 -230 0 -230 75 0 75 0 0 150 c0 161 8 197 47 206 32 9 69 -3 78 -23
4 -10 10 -89 13 -175 l5 -158 68 0 69 0 0 185 c0 206 -8 243 -57 268 -45 23
-104 28 -146 13z"/>
<path d="M2843 640 c-83 -17 -126 -55 -140 -120 l-5 -30 62 0 c54 0 65 3 82
25 14 18 29 25 53 25 51 0 65 -9 65 -41 0 -31 -1 -31 -132 -58 -78 -17 -120
-47 -137 -99 -18 -58 -7 -108 34 -149 30 -30 38 -33 95 -33 64 0 90 9 128 43
l22 20 0 -26 0 -27 80 0 c44 0 80 2 80 4 0 2 -7 17 -15 32 -11 22 -15 65 -15
177 0 172 -10 207 -69 236 -44 23 -132 32 -188 21z m112 -337 c-8 -32 -64 -57
-99 -43 -49 18 -38 99 13 101 9 0 32 6 51 12 34 12 35 12 38 -17 2 -16 1 -40
-3 -53z"/>
<path d="M3377 636 c-22 -8 -50 -24 -63 -37 l-24 -22 0 26 c0 27 -1 27 -70 27
l-70 0 0 -230 0 -230 75 0 75 0 0 151 c0 180 10 208 71 209 53 0 59 -21 59
-198 l0 -162 64 0 64 0 4 153 c4 179 14 207 73 207 58 0 65 -21 65 -202 l0
-158 70 0 70 0 0 186 c0 151 -3 192 -16 220 -37 78 -167 93 -235 28 l-29 -28
-16 22 c-30 43 -105 60 -167 38z"/>
<path d="M4032 640 c-80 -17 -125 -56 -147 -127 -6 -22 -4 -23 60 -23 60 0 69
3 87 25 34 43 118 31 118 -17 0 -23 -22 -33 -100 -48 -88 -17 -130 -38 -158
-80 -20 -29 -23 -44 -19 -89 3 -47 9 -59 41 -89 37 -33 40 -34 107 -30 50 3
76 9 98 26 37 27 41 27 41 2 0 -18 7 -20 76 -20 75 0 76 0 68 22 -4 13 -10 98
-13 190 -5 147 -8 170 -27 195 -39 54 -140 81 -232 63z m107 -347 c-18 -34
-73 -49 -104 -29 -29 19 -33 56 -7 79 9 9 37 20 60 26 24 5 47 12 50 16 13 13
14 -68 1 -92z"/>
<path d="M1320 400 l0 -231 73 3 72 3 3 228 2 227 -75 0 -75 0 0 -230z"/>
<path d="M2500 400 l0 -230 75 0 75 0 0 230 0 230 -75 0 -75 0 0 -230z"/>
</g>
</svg>
